{"title":"The.Other.Bank.2010.BRRip.AC3.HORiZON-ArtSubs","uid":7305121,"size":1570839529,"categoryP":"video","categoryS":"movies","magnet":"?xt=urn:btih:afd583583b6ea21fce0f26185438e4519733522a&amp;dn=The.Other.Bank.2010.BRRip.AC3.HORiZON-ArtSubs&amp;tr=udp%3A%2F%2Ftracker.openbittorrent.com%3A80&amp;tr=udp%3A%2F%2Fopen.demonii.com%3A1337&amp;tr=udp%3A%2F%2Ftracker.coppersurfer.tk%3A6969&amp;tr=udp%3A%2F%2Fexodus.desync.com%3A6969","seeders":3,"leechers":0,"uploader":"lletaif","files":2,"time":1338168387,"description":"Title: The Other Bank aka Gagma Napiri\n\nCountry: Georgia, 2010\n\nDirector: George Ovashvili\n\nWriters: Rustam Ibragimbekov (adaptation), George Ovashvili (adaptation)\n\nStars: Tedo Bekhauri, Tamar Meskhi and Archil Tabukashvili \n\nPlot: A young refugee and his mother flee ethnic cleansing in the Georgian region of Abkhazia, leaving his father behind. After arriving in the Georgina capital of Tbilisi, the young boy encounters difficulties with his mother, and begins a lonely journey back to Abkahzia to find his father.\n\nIMDB: &lt;a href=&quot;\nhttp://www.imdb.com/title/tt1368439/&quot; rel=&quot;nofollow&quot; target=&quot;_NEW&quot;&gt;\nhttp://www.imdb.com/title/tt1368439/&lt;/a&gt;\n\n\nRip Specs:\n\n\nGeneral\nComplete name                    : The.Other.Bank.2010.BRRip.AC3.HORiZON-ArtSubs.avi\nFormat                           : AVI\nFormat/Info                      : Audio Video Interleave\nFile size                        : 1.46 GiB\nDuration                         : 1h 29mn\nOverall bit rate                 : 2 345 Kbps\nWriting application              : FairUse Wizard - http://fairusewizard.com\nWriting library                  : The best and REALLY easy backup tool\n\nVideo\nID                               : 0\nFormat                           : MPEG-4 Visual\nFormat profile                   : Advanced Simple@L5\nFormat settings, BVOP            : 1\nFormat settings, QPel            : No\nFormat settings, GMC             : No warppoints\nFormat settings, Matrix          : Default (MPEG)\nMuxing mode                      : Packed bitstream\nCodec ID                         : XVID\nCodec ID/Hint                    : XviD\nDuration                         : 1h 29mn\nBit rate                         : 2 143 Kbps\nWidth                            : 688 pixels\nHeight                           : 368 pixels\nDisplay aspect ratio             : 1.870\nFrame rate                       : 25.000 fps\nColor space                      : YUV\nChroma subsampling               : 4:2:0\nBit depth                        : 8 bits\nScan type                        : Progressive\nCompression mode                 : Lossy\nBits/(Pixel*Frame)               : 0.339\nStream size                      : 1.34 GiB (91%)\nWriting library                  : XviD 1.2.0.dev47 (UTC 2006-11-01)\n\nAudio\nID                               : 1\nFormat                           : AC-3\nFormat/Info                      : Audio Coding 3\nMode extension                   : CM (complete main)\nCodec ID                         : 2000\nDuration                         : 1h 29mn\nBit rate mode                    : Constant\nBit rate                         : 192 Kbps\nChannel(s)                       : 2 channels\nChannel positions                : Front: L R\nSampling rate                    : 48.0 KHz\nBit depth                        : 16 bits\nCompression mode                 : Lossy\nStream size                      : 123 MiB (8%)\nAlignment                        : Split accross interleaves\nInterleave, duration             : 40 ms (1.00 video frame)\nInterleave, preload duration     : 500 ms\n","torrent":{"xt":"urn:btih:afd583583b6ea21fce0f26185438e4519733522a","amp;dn":"The.Other.Bank.2010.BRRip.AC3.HORiZON-ArtSubs","amp;tr":["udp%3A%2F%2Ftracker.openbittorrent.com%3A80","udp%3A%2F%2Fopen.demonii.com%3A1337","udp%3A%2F%2Ftracker.coppersurfer.tk%3A6969","udp%3A%2F%2Fexodus.desync.com%3A6969"],"infoHash":"afd583583b6ea21fce0f26185438e4519733522a","infoHashBuffer":{"type":"Buffer","data":[175,213,131,88,59,110,162,31,206,15,38,24,84,56,228,81,151,51,82,42]},"announce":[],"urlList":[]}}